<?xml version="1.0" encoding="UTF-8"?>
<svg version="1.1" xmlns="http://www.w3.org/2000/svg" width="100" height="100">
<path d="M0 0 C2.31243792 -0.02685412 4.6249627 -0.04632841 6.9375 -0.0625 C8.22527344 -0.07410156 9.51304688 -0.08570313 10.83984375 -0.09765625 C14 0 14 0 15 1 C16.34747084 1.23075082 17.70377565 1.41153063 19.0625 1.5625 C20.361875 1.706875 21.66125 1.85125 23 2 C23 2.66 23 3.32 23 4 C32.57 4 42.14 4 52 4 C52 4.66 52 5.32 52 6 C52.70125 6.0825 53.4025 6.165 54.125 6.25 C57.6903452 7.18009005 60.09015572 8.76686369 63 11 C63 11.66 63 12.32 63 13 C63.66 13 64.32 13 65 13 C67.56281635 17.51336885 67.38244861 21.53945825 67.375 26.625 C67.37628906 27.52057617 67.37757812 28.41615234 67.37890625 29.33886719 C67.27454226 35.85924434 66.36208933 41.2964556 63 47 C64.98 46.67 66.96 46.34 69 46 C68.34728444 49.51705958 67.48606976 52.89325077 66.4375 56.3125 C66.16808594 57.19550781 65.89867188 58.07851563 65.62109375 58.98828125 C65.41613281 59.65214844 65.21117188 60.31601563 65 61 C64.34 61 63.68 61 63 61 C62.89429687 61.58523437 62.78859375 62.17046875 62.6796875 62.7734375 C61.90455369 65.31266895 60.87696252 66.64641546 59.125 68.625 C58.35542969 69.51058594 58.35542969 69.51058594 57.5703125 70.4140625 C56 72 56 72 53 74 C52.01 74 51.02 74 50 74 C50 74.66 50 75.32 50 76 C49.195625 76.2475 48.39125 76.495 47.5625 76.75 C44.84688769 77.71114717 44.84688769 77.71114717 44.25 80 C44.1675 80.66 44.085 81.32 44 82 C43.67 82.66 43.34 83.32 43 84 C42.34 84 41.68 84 41 84 C41 84.66 41 85.32 41 86 C40.01 86 39.02 86 38 86 C38 86.66 38 87.32 38 88 C24.20655247 89.03307374 24.20655247 89.03307374 19.625 85.125 C17 82.44827586 17 82.44827586 17 80 C15.35 80 13.7 80 12 80 C12 79.34 12 78.68 12 78 C11.01 78 10.02 78 9 78 C9 77.34 9 76.68 9 76 C8.34 76 7.68 76 7 76 C6.67 75.01 6.34 74.02 6 73 C4.1346755 71.98245132 4.1346755 71.98245132 1.9375 71.3125 C1.20402344 71.06113281 0.47054688 70.80976562 -0.28515625 70.55078125 C-0.85105469 70.36902344 -1.41695312 70.18726562 -2 70 C-2 69.34 -2 68.68 -2 68 C-2.598125 67.731875 -3.19625 67.46375 -3.8125 67.1875 C-5.99847854 66.00082594 -7.41332594 64.90400887 -9 63 C-9 62.34 -9 61.68 -9 61 C-9.66 61 -10.32 61 -11 61 C-11 60.01 -11 59.02 -11 58 C-11.66 58 -12.32 58 -13 58 C-13 56.68 -13 55.36 -13 54 C-13.66 54 -14.32 54 -15 54 C-15.50471197 52.23050388 -16.00360685 50.45934777 -16.5 48.6875 C-16.7784375 47.70136719 -17.056875 46.71523438 -17.34375 45.69921875 C-18 43 -18 43 -18 40 C-16.02 39.505 -16.02 39.505 -14 39 C-14.16298584 38.43829102 -14.32597168 37.87658203 -14.49389648 37.29785156 C-15.02985098 34.86446819 -15.11361396 32.72377772 -15.09765625 30.234375 C-15.09443359 29.34492187 -15.09121094 28.45546875 -15.08789062 27.5390625 C-15.07951172 26.61867188 -15.07113281 25.69828125 -15.0625 24.75 C-15.05798828 23.81414063 -15.05347656 22.87828125 -15.04882812 21.9140625 C-15.03706918 19.60930959 -15.02063426 17.30468773 -15 15 C-14.34 15 -13.68 15 -13 15 C-13 14.01 -13 13.02 -13 12 C-12.34 12 -11.68 12 -11 12 C-11 11.34 -11 10.68 -11 10 C-10.34 10 -9.68 10 -9 10 C-9 9.34 -9 8.68 -9 8 C-8.34 8 -7.68 8 -7 8 C-7 7.34 -7 6.68 -7 6 C-6.34 6 -5.68 6 -5 6 C-5 5.34 -5 4.68 -5 4 C-3.35 3.34 -1.7 2.68 0 2 C0 1.34 0 0.68 0 0 Z M33 14 C33 14.66 33 15.32 33 16 C31.9790625 16.185625 31.9790625 16.185625 30.9375 16.375 C27.95063546 16.9563718 27.95063546 16.9563718 24.9375 18 C20.36296926 19.32143758 15.79759089 19.45216018 11.0625 19.625 C10.18787109 19.66367187 9.31324219 19.70234375 8.41210938 19.7421875 C6.27505369 19.8356107 4.13755706 19.91885398 2 20 C-0.38468884 24.02177224 -0.38468884 24.02177224 -0.85546875 28.5546875 C-0.63503906 29.32039063 -0.41460938 30.08609375 -0.1875 30.875 C0.02519531 31.65617187 0.23789062 32.43734375 0.45703125 33.2421875 C0.63621094 33.82226562 0.81539062 34.40234375 1 35 C1.66 35 2.32 35 3 35 C3.8441938 38.97977076 4.44687265 42.97007218 5 47 C5.66 47 6.32 47 7 47 C7 45.35 7 43.7 7 42 C7.99 42 8.98 42 10 42 C10 41.34 10 40.68 10 40 C10.886875 40.020625 11.77375 40.04125 12.6875 40.0625 C15.62201655 40.00713176 18.14039183 39.57192163 21 39 C21.33 39.33 21.66 39.66 22 40 C23.66617115 40.04063832 25.33388095 40.042721 27 40 C27 41.98 27 43.96 27 46 C26.030625 45.979375 25.06125 45.95875 24.0625 45.9375 C21.12534105 45.64381501 21.12534105 45.64381501 20 47 C17.81707226 47.23481693 15.62796826 47.41363323 13.4375 47.5625 C12.23996094 47.64628906 11.04242188 47.73007812 9.80859375 47.81640625 C8.88175781 47.87699219 7.95492188 47.93757813 7 48 C7 49.98 7 51.96 7 54 C7.66 54 8.32 54 9 54 C8.938125 54.99 8.87625 55.98 8.8125 57 C8.79448237 61.43233699 10.30893196 64.96947514 12 69 C12.33 69.99 12.66 70.98 13 72 C14.32 72 15.64 72 17 72 C17 72.66 17 73.32 17 74 C18.32 74 19.64 74 21 74 C21 74.66 21 75.32 21 76 C21.66 76 22.32 76 23 76 C23.2475 76.61875 23.495 77.2375 23.75 77.875 C25.25822744 80.43898664 26.17636058 81.11257047 29 82 C31.85418219 81.651929 34.26879341 80.9104022 37 80 C37 79.01 37 78.02 37 77 C37.66 77 38.32 77 39 77 C39 76.01 39 75.02 39 74 C39.66 74 40.32 74 41 74 C41 73.34 41 72.68 41 72 C41.61875 71.71125 42.2375 71.4225 42.875 71.125 C45.13325765 70.06279958 45.13325765 70.06279958 47 68 C47.27714896 65.86747907 47.27714896 65.86747907 47.1953125 63.4296875 C47.18564453 62.08583984 47.18564453 62.08583984 47.17578125 60.71484375 C47.15902344 59.77769531 47.14226562 58.84054688 47.125 57.875 C47.11597656 56.93011719 47.10695312 55.98523437 47.09765625 55.01171875 C47.07404668 52.67437173 47.03817494 50.33715451 47 48 C43.04 48 39.08 48 35 48 C35 47.34 35 46.68 35 46 C33.02 46 31.04 46 29 46 C29.99 42.535 29.99 42.535 31 39 C33.10409639 38.97298592 35.20829178 38.95359777 37.3125 38.9375 C38.48425781 38.92589844 39.65601563 38.91429688 40.86328125 38.90234375 C44 39 44 39 47 40 C47 42.31 47 44.62 47 47 C47.33 47 47.66 47 48 47 C48.13277344 45.97519531 48.26554687 44.95039062 48.40234375 43.89453125 C48.58064088 42.5338426 48.75903123 41.17316615 48.9375 39.8125 C49.02451172 39.13896484 49.11152344 38.46542969 49.20117188 37.77148438 C49.58200399 34.87998132 49.99205851 32.03573668 50.625 29.1875 C51.12113052 26.29340528 50.26076005 24.59568245 49 22 C48.34 22 47.68 22 47 22 C46.34 20.35 45.68 18.7 45 17 C44.34 17 43.68 17 43 17 C43 16.01 43 15.02 43 14 C37.94990405 13.06213918 37.94990405 13.06213918 33 14 Z " fill="#000000" transform="translate(24,5)"/>
<path d="M0 0 C3.85006348 -0.08953636 7.23647492 0.24729498 11 1 C11.33 0.67 11.66 0.34 12 0 C13.99958364 -0.04080783 16.00045254 -0.04254356 18 0 C17.979375 1.010625 17.95875 2.02125 17.9375 3.0625 C17.99687734 6.80327257 18.39795085 10.31244898 19 14 C17.33388095 14.042721 15.66617115 14.04063832 14 14 C13.67 13.67 13.34 13.34 13 13 C11.48530552 12.76807135 9.96245438 12.58784762 8.4375 12.4375 C7.61121094 12.35371094 6.78492188 12.26992187 5.93359375 12.18359375 C5.29550781 12.12300781 4.65742187 12.06242187 4 12 C4 12.66 4 13.32 4 14 C1.03 13.505 1.03 13.505 -2 13 C-2 10.69 -2 8.38 -2 6 C-1.34 5.67 -0.68 5.34 0 5 C0 3.35 0 1.7 0 0 Z " fill="#000000" transform="translate(45,61)"/>
<path d="M0 0 C0.66 0 1.32 0 2 0 C2 0.66 2 1.32 2 2 C1.34 2 0.68 2 0 2 C0 1.34 0 0.68 0 0 Z " fill="#000000" transform="translate(81,77)"/>
<path d="M0 0 C0.66 0 1.32 0 2 0 C2 0.66 2 1.32 2 2 C1.34 2 0.68 2 0 2 C0 1.34 0 0.68 0 0 Z " fill="#000000" transform="translate(83,75)"/>
<path d="M0 0 C0.66 0 1.32 0 2 0 C2 0.66 2 1.32 2 2 C1.34 2 0.68 2 0 2 C0 1.34 0 0.68 0 0 Z " fill="#000000" transform="translate(13,69)"/>
<path d="M0 0 C0.66 0 1.32 0 2 0 C2 0.66 2 1.32 2 2 C1.34 2 0.68 2 0 2 C0 1.34 0 0.68 0 0 Z " fill="#000000" transform="translate(41,65)"/>
<path d="M0 0 C0.66 0 1.32 0 2 0 C2 0.66 2 1.32 2 2 C1.34 2 0.68 2 0 2 C0 1.34 0 0.68 0 0 Z " fill="#000000" transform="translate(63,59)"/>
<path d="M0 0 C0.66 0 1.32 0 2 0 C2 0.66 2 1.32 2 2 C1.34 2 0.68 2 0 2 C0 1.34 0 0.68 0 0 Z " fill="#000000" transform="translate(53,59)"/>
<path d="M0 0 C0.66 0 1.32 0 2 0 C2 0.66 2 1.32 2 2 C1.34 2 0.68 2 0 2 C0 1.34 0 0.68 0 0 Z " fill="#000000" transform="translate(43,59)"/>
<path d="M0 0 C0.66 0 1.32 0 2 0 C2 0.66 2 1.32 2 2 C1.34 2 0.68 2 0 2 C0 1.34 0 0.68 0 0 Z " fill="#000000" transform="translate(57,53)"/>
<path d="M0 0 C0.66 0 1.32 0 2 0 C2 0.66 2 1.32 2 2 C1.34 2 0.68 2 0 2 C0 1.34 0 0.68 0 0 Z " fill="#000000" transform="translate(45,53)"/>
<path d="M0 0 C0.66 0 1.32 0 2 0 C2 0.66 2 1.32 2 2 C1.34 2 0.68 2 0 2 C0 1.34 0 0.68 0 0 Z " fill="#000000" transform="translate(51,51)"/>
<path d="" fill="#000000" transform="translate(0,0)"/>
<path d="M0 0 C2 1 2 1 2 1 Z " fill="#000000" transform="translate(17,73)"/>
<path d="" fill="#000000" transform="translate(0,0)"/>
<path d="" fill="#000000" transform="translate(0,0)"/>
<path d="" fill="#000000" transform="translate(0,0)"/>
</svg>
